# xmcd
#
# Track frame offsets:
#	150
#	19022
#	42290
#	64225
#	85062
#	107652
#	126187
#	147037
#	169432
#	191460
#
# Disc length: 2735 seconds
#
# Revision: 1
# Processed by: cddbd v1.5PL3 Copyright (c) Steve Scherf et al.
# Submitted via: CDex 1.50Beta5
#
DISCID=840aad0a
DTITLE=衛藤利恵 - Be there.
DYEAR=1995
DGENRE=New Age
TTITLE0=Time’s River
TTITLE1=sometime something
TTITLE2=天使の微笑
TTITLE3=Sunday Noon
TTITLE4=心を風にあずけて
TTITLE5=時代を聴いている
TTITLE6=faraway
TTITLE7=月の香り
TTITLE8=for me
TTITLE9=My Dear Hometown
EXTD=
EXTT0=
EXTT1=
EXTT2=
EXTT3=
EXTT4=
EXTT5=
EXTT6=
EXTT7=
EXTT8=
EXTT9=
PLAYORDER=
